<?xml version="1.0" encoding="iso-8859-1"?>
<!-- Generator: Adobe Illustrator 18.0.0, SVG Export Plug-In . SVG Version: 6.00 Build 0)  -->
<!DOCTYPE svg PUBLIC "-//W3C//DTD SVG 1.1//EN" "http://www.w3.org/Graphics/SVG/1.1/DTD/svg11.dtd">
<svg version="1.1" id="Capa_1" xmlns="http://www.w3.org/2000/svg" xmlns:xlink="http://www.w3.org/1999/xlink" x="0px" y="0px"
	 viewBox="0 0 490.703 490.703" style="enable-background:new 0 0 490.703 490.703;" xml:space="preserve">
<g>
	<path d="M242.383,253.895h-2.351c-12.465,0-22.605,10.141-22.605,22.605v2.351c0,12.465,10.141,22.605,22.605,22.605h2.351
		c12.464,0,22.605-10.141,22.605-22.605v-2.351C264.988,264.036,254.847,253.895,242.383,253.895z M247.988,278.852
		c0,3.091-2.514,5.605-5.605,5.605h-2.351c-3.091,0-5.605-2.515-5.605-5.605v-2.351c0-3.091,2.515-5.605,5.605-5.605h2.351
		c3.091,0,5.605,2.515,5.605,5.605V278.852z"/>
	<path d="M241.207,324.422c-4.694,0-8.5,3.806-8.5,8.5v24.685c0,4.694,3.806,8.5,8.5,8.5c4.694,0,8.5-3.806,8.5-8.5v-24.685
		C249.707,328.228,245.901,324.422,241.207,324.422z"/>
	<path d="M374.627,473.703h-96.218c-16.794,0-30.458-13.663-30.458-30.457v-28.381h21.562c24.402,0,44.254-19.853,44.254-44.255
		V253.949h24.24c20.309,0,36.832-16.523,36.832-36.832V113.235c0-14.686-8.642-27.387-21.104-33.297V8.5c0-4.694-3.806-8.5-8.5-8.5
		s-8.5,3.806-8.5,8.5v67.903h-24.611V8.5c0-4.694-3.806-8.5-8.5-8.5c-4.694,0-8.5,3.806-8.5,8.5v67.903h-24.61V8.5
		c0-4.694-3.806-8.5-8.5-8.5c-4.694,0-8.5,3.806-8.5,8.5v67.903h-24.611V8.5c0-4.694-3.806-8.5-8.5-8.5c-4.694,0-8.5,3.806-8.5,8.5
		v67.903h-24.611V8.5c0-4.694-3.806-8.5-8.5-8.5c-4.694,0-8.5,3.806-8.5,8.5v67.903h-24.61V8.5c0-4.694-3.806-8.5-8.5-8.5
		c-4.694,0-8.5,3.806-8.5,8.5v71.438c-12.463,5.91-21.104,18.611-21.104,33.297v103.882c0,20.31,16.522,36.832,36.831,36.832h24.24
		V370.61c0,24.402,19.853,44.255,44.254,44.255h18.049v28.381c0,26.168,21.29,47.457,47.458,47.457h96.218
		c4.694,0,8.5-3.806,8.5-8.5C383.127,477.509,379.321,473.703,374.627,473.703z M144.408,93.403h193.599
		c10.935,0,19.832,8.896,19.832,19.832v17.238H124.576v-17.238C124.576,102.3,133.473,93.403,144.408,93.403z M185.647,370.61
		V245.449c0-4.694-3.806-8.5-8.5-8.5h-32.74c-10.935,0-19.831-8.896-19.831-19.832v-69.643h233.262v69.643
		c0,10.936-8.897,19.832-19.832,19.832h-32.74c-4.694,0-8.5,3.806-8.5,8.5V370.61c0,15.028-12.226,27.255-27.254,27.255h-56.611
		C197.873,397.865,185.647,385.639,185.647,370.61z"/>
</g>
<g>
</g>
<g>
</g>
<g>
</g>
<g>
</g>
<g>
</g>
<g>
</g>
<g>
</g>
<g>
</g>
<g>
</g>
<g>
</g>
<g>
</g>
<g>
</g>
<g>
</g>
<g>
</g>
<g>
</g>
</svg>
