<?xml version="1.0" encoding="iso-8859-1"?>
<!-- Generator: Adobe Illustrator 18.0.0, SVG Export Plug-In . SVG Version: 6.00 Build 0)  -->
<!DOCTYPE svg PUBLIC "-//W3C//DTD SVG 1.1//EN" "http://www.w3.org/Graphics/SVG/1.1/DTD/svg11.dtd">
<svg version="1.1" id="Capa_1" xmlns="http://www.w3.org/2000/svg" xmlns:xlink="http://www.w3.org/1999/xlink" x="0px" y="0px"
	 viewBox="0 0 480.595 480.595" style="enable-background:new 0 0 480.595 480.595;" xml:space="preserve">
<g>
	<path d="M261.446,348.947c-35.49,0-64.364,26.813-64.364,59.77c0,15.099,8.537,23.758,23.423,23.758
		c7.104,0,15.045-1.84,22.725-3.619c6.568-1.522,13.36-3.095,18.217-3.095c4.262,0,10.721,1.506,16.967,2.962
		c7.91,1.845,16.09,3.752,23.504,3.751c15.185-0.001,23.896-8.661,23.896-23.758C325.812,375.76,296.937,348.947,261.446,348.947z
		 M301.916,415.476c-5.458,0.001-12.669-1.681-19.643-3.307c-7.513-1.752-14.609-3.407-20.827-3.407
		c-6.8,0-14.555,1.796-22.054,3.534c-6.749,1.563-13.728,3.18-18.888,3.18c-5.123,0-6.423-0.664-6.423-6.758
		c0-23.583,21.247-42.77,47.364-42.77c26.118,0,47.366,19.186,47.366,42.77C308.812,414.401,307.717,415.475,301.916,415.476z"/>
	<path d="M226.232,326.523c0-17.534-12.021-31.798-26.799-31.798c-14.778,0-26.802,14.265-26.802,31.798
		c0,17.535,12.023,31.8,26.802,31.8C214.211,358.323,226.232,344.058,226.232,326.523z M189.632,326.523
		c0-7.883,4.58-14.798,9.802-14.798c5.22,0,9.799,6.915,9.799,14.798c0,7.884-4.579,14.8-9.799,14.8
		C194.212,341.323,189.632,334.407,189.632,326.523z"/>
	<path d="M263.373,337.343c14.778,0,26.801-14.265,26.801-31.799c0-17.534-12.022-31.799-26.801-31.799
		c-14.777,0-26.799,14.265-26.799,31.799C236.574,323.078,248.596,337.343,263.373,337.343z M263.373,290.745
		c5.221,0,9.801,6.915,9.801,14.799c0,7.884-4.58,14.799-9.801,14.799c-5.22,0-9.799-6.916-9.799-14.799
		C253.574,297.66,258.153,290.745,263.373,290.745z"/>
	<path d="M327.314,294.725c-14.778,0-26.801,14.265-26.801,31.798c0,17.535,12.022,31.8,26.801,31.8
		c14.778,0,26.802-14.265,26.802-31.8C354.116,308.99,342.093,294.725,327.314,294.725z M327.314,341.323
		c-5.221,0-9.801-6.916-9.801-14.8c0-7.883,4.58-14.798,9.801-14.798c5.222,0,9.802,6.915,9.802,14.798
		C337.116,334.407,332.536,341.323,327.314,341.323z"/>
	<path d="M479.068,176.702c0-45.213-36.784-81.997-81.997-81.997c-10.662,0-21.244,2.09-31.05,6.092
		c-13.292-24.008-38.502-39.091-66.445-39.091c-29.247,0-55.299,16.357-68.069,42.193c-19.156-1.375-37.629,4.41-52.359,16.021
		c-12.707-12.304-29.611-19.216-47.563-19.216c-37.77,0-68.497,30.728-68.497,68.497c0,9.086,1.794,17.756,5.021,25.697
		c-8.81,8.052-12.9,20.337-10.591,33.179l31.395,174.563c-12.676-3.013-34.883-4.646-53.651,12.871
		c-13.407,0.067-30.934,7.263-33.604,28.622c-0.624,4.997,1.031,9.82,4.663,13.581c5.095,5.276,16.781,12.325,59.264,12.616
		c0.91,0.006,1.816,0.009,2.718,0.009c20.954,0,39.243-1.615,40.043-1.686c1.045-0.094,2.023-0.381,2.917-0.81
		c8.743,7.833,20.13,12.751,31.78,12.751h246c22.115,0,43.293-17.708,47.208-39.474l38.316-213.043
		c1.265-7.032,0.669-13.903-1.704-20.115C476.852,198.323,479.068,187.768,479.068,176.702z M214.291,120.595
		c28.417-5.833,38.083,9.833,44.976,21.436c1.773,2.986,4.516,5.066,7.779,5.066c1.147,0,2.313-0.233,3.431-0.727
		c4.294-1.898,6.236-6.917,4.339-11.21c-6.693-15.148-18.087-23.002-26.365-26.909c10.415-18.19,29.661-29.544,51.126-29.544
		c24.027,0,45.455,14.369,54.588,36.606c0.917,2.233,2.74,3.971,5.015,4.779c2.272,0.808,4.784,0.613,6.906-0.541
		c9.444-5.133,20.159-7.846,30.986-7.846c35.84,0,64.997,29.157,64.997,64.997c0,35.839-29.157,64.997-64.997,64.997
		c-28.296,0-53.151-18.083-61.849-44.997c-0.742-2.298-2.427-4.171-4.634-5.153c-1.1-0.489-2.276-0.733-3.454-0.733
		c-1.185,0-2.37,0.248-3.476,0.743c-7.616,3.412-15.72,5.143-24.083,5.143c-3.094,0-6.233-0.25-9.331-0.742
		c-3.944-0.626-7.786,1.574-9.245,5.288c-8.935,22.751-30.492,37.451-54.92,37.451c-20.237,0-38.837-10.21-49.754-27.313
		c-1.301-2.036-3.405-3.423-5.79-3.814c-2.389-0.39-4.823,0.252-6.704,1.766c-9.236,7.433-20.388,11.362-32.248,11.362
		c-28.395,0-51.497-23.102-51.497-51.497s23.102-51.497,51.497-51.497c13.313,0,25.85,5.076,35.36,14.099
		c-3.849,4.992-8.261,12.161-11.038,21.326c-1.361,4.493,1.177,9.238,5.67,10.6c0.821,0.249,1.651,0.368,2.468,0.368
		c3.648,0,7.02-2.367,8.132-6.038C172.176,158.06,180.808,127.468,214.291,120.595z M63.552,453.311
		c-36.382-0.469-43.855-6.236-44.984-7.386c1.997-14.32,16.233-13.586,19.028-13.294c2.671,0.315,5.339-0.656,7.183-2.616
		c19.366-20.576,46.054-9.134,47.314-8.576c0.071,0.032,0.144,0.055,0.216,0.084l3.524,19.598c0.696,3.87,1.947,7.608,3.644,11.146
		C91.396,452.795,77.68,453.492,63.552,453.311z M419.516,438.111c-2.484,13.814-16.44,25.484-30.476,25.484h-246
		c-14.035,0-27.991-11.67-30.476-25.484L74.249,225.07c-0.989-5.496,0.037-10.621,2.714-14.592
		c12.518,16.523,32.341,27.221,54.621,27.221c12.564,0,24.923-3.503,35.594-9.988c14.364,17.667,35.804,27.988,58.902,27.988
		c29.247,0,55.299-16.357,68.069-42.193c9.627,0.693,19.085-0.43,28.088-3.254c13.086,29.308,42.14,48.447,74.834,48.447
		c23.302,0,44.347-9.786,59.29-25.445L419.516,438.111z"/>
	<path d="M167.582,87.707c20.401,0,36.999-16.598,36.999-36.999c0-20.401-16.598-36.999-36.999-36.999s-36.999,16.598-36.999,36.999
		C130.583,71.11,147.18,87.707,167.582,87.707z M167.582,30.709c11.027,0,19.999,8.972,19.999,19.999
		c0,11.027-8.972,19.999-19.999,19.999c-11.027,0-19.999-8.972-19.999-19.999C147.583,39.681,156.555,30.709,167.582,30.709z"/>
	<path d="M43.089,60.708c13.784,0,24.999-11.214,24.999-24.999c0-13.785-11.215-24.999-24.999-24.999
		c-13.784,0-24.999,11.214-24.999,24.999C18.09,49.494,29.305,60.708,43.089,60.708z M43.089,27.71c4.411,0,7.999,3.588,7.999,7.999
		c0,4.411-3.588,7.999-7.999,7.999c-4.411,0-7.999-3.588-7.999-7.999C35.09,31.298,38.678,27.71,43.089,27.71z"/>
	<path d="M414.983,71.418c19.69,0,35.709-16.019,35.709-35.709C450.692,16.019,434.674,0,414.983,0s-35.709,16.019-35.709,35.709
		C379.274,55.399,395.293,71.418,414.983,71.418z M414.983,17c10.316,0,18.709,8.393,18.709,18.709s-8.393,18.709-18.709,18.709
		c-10.316,0-18.709-8.393-18.709-18.709S404.667,17,414.983,17z"/>
	<path d="M44.588,350.194c14.611,0,26.499-11.887,26.499-26.499c0-14.612-11.888-26.499-26.499-26.499
		c-14.611,0-26.499,11.887-26.499,26.499C18.089,338.307,29.976,350.194,44.588,350.194z M44.588,314.196
		c5.237,0,9.499,4.261,9.499,9.499s-4.262,9.499-9.499,9.499s-9.499-4.261-9.499-9.499S39.35,314.196,44.588,314.196z"/>
</g>
<g>
</g>
<g>
</g>
<g>
</g>
<g>
</g>
<g>
</g>
<g>
</g>
<g>
</g>
<g>
</g>
<g>
</g>
<g>
</g>
<g>
</g>
<g>
</g>
<g>
</g>
<g>
</g>
<g>
</g>
</svg>
