<?xml version="1.0" encoding="iso-8859-1"?>
<!-- Generator: Adobe Illustrator 18.0.0, SVG Export Plug-In . SVG Version: 6.00 Build 0)  -->
<!DOCTYPE svg PUBLIC "-//W3C//DTD SVG 1.1//EN" "http://www.w3.org/Graphics/SVG/1.1/DTD/svg11.dtd">
<svg version="1.1" id="Capa_1" xmlns="http://www.w3.org/2000/svg" xmlns:xlink="http://www.w3.org/1999/xlink" x="0px" y="0px"
	 viewBox="0 0 494.168 494.168" style="enable-background:new 0 0 494.168 494.168;" xml:space="preserve">
<g>
	<path d="M47.083,390.116c-11.724,11.726-11.724,30.803,0,42.527c5.68,5.68,13.231,8.808,21.264,8.808
		c8.032,0,15.584-3.128,21.264-8.809c11.724-11.726,11.724-30.803,0-42.527c-5.68-5.68-13.231-8.807-21.264-8.807
		C60.314,381.309,52.763,384.436,47.083,390.116z M77.589,420.622c-2.469,2.469-5.751,3.829-9.242,3.829
		c-3.491,0-6.774-1.36-9.242-3.829c-5.097-5.096-5.097-13.389,0-18.485c2.469-2.469,5.751-3.829,9.242-3.828
		c3.491-0.001,6.773,1.359,9.242,3.828C82.686,407.232,82.686,415.525,77.589,420.622z"/>
	<path d="M485.668,36.218h-31.062c-4-12.61-15.813-21.776-29.73-21.776c-17.194,0-31.184,13.989-31.184,31.184
		c0,17.194,13.989,31.184,31.184,31.184c14.576,0,26.845-10.055,30.244-23.591h22.048v76.789
		c0,57.852-47.065,104.917-104.917,104.917c-57.852,0-104.917-47.065-104.917-104.917V53.218h20.232
		c3.399,13.536,15.668,23.591,30.244,23.591c17.194,0,31.184-13.989,31.184-31.184c0-17.194-13.989-31.184-31.184-31.184
		c-13.917,0-25.73,9.166-29.73,21.776h-29.246c-4.694,0-8.5,3.806-8.5,8.5v85.289c0,64.355,50.123,117.216,113.38,121.613v53.427
		c0,37.253-30.308,67.56-67.561,67.56c-36.98,0-67.066-30.81-67.066-68.681V172.284c0-46.627-37.823-84.56-84.313-84.56
		c-46.627,0-84.561,37.934-84.561,84.56v171.25C26.349,347.569,0,376.446,0,411.38c0,37.686,30.66,68.347,68.347,68.347
		c37.688,0,68.348-30.66,68.348-68.347c0-34.682-25.971-63.391-59.481-67.754V172.283c0-37.253,30.308-67.56,67.561-67.56
		c37.117,0,67.313,30.308,67.313,67.56v131.642c0,47.244,37.712,85.681,84.066,85.681c46.627,0,84.561-37.934,84.561-84.56v-53.422
		c63.292-4.361,113.454-57.237,113.454-121.618V44.718C494.168,40.023,490.362,36.218,485.668,36.218z M424.876,59.809
		c-7.821,0-14.184-6.362-14.184-14.184s6.362-14.184,14.184-14.184c7.821,0,14.184,6.362,14.184,14.184
		S432.697,59.809,424.876,59.809z M317.81,31.441c7.821,0,14.184,6.362,14.184,14.184s-6.362,14.184-14.184,14.184
		c-7.821,0-14.184-6.362-14.184-14.184S309.989,31.441,317.81,31.441z M119.694,411.38c0,28.313-23.034,51.347-51.348,51.347
		C40.034,462.727,17,439.692,17,411.38c0-28.314,23.034-51.348,51.347-51.348C96.66,360.032,119.694,383.066,119.694,411.38z"/>
</g>
<g>
</g>
<g>
</g>
<g>
</g>
<g>
</g>
<g>
</g>
<g>
</g>
<g>
</g>
<g>
</g>
<g>
</g>
<g>
</g>
<g>
</g>
<g>
</g>
<g>
</g>
<g>
</g>
<g>
</g>
</svg>
